# xmcd CD database file
#
# Track frame offsets:
#	183
#	40245
#	60853
#	141898
#	183355
#	223773
#
# Disc length: 3527 seconds
#
# Revision: 0
# Processed by: cddbd v1.5.1PL0 Copyright (c) Steve Scherf et al.
# Submitted via: CDex 1.51
#
DISCID=510dc506
DTITLE=Alain Legros - Ether
DYEAR=1990
DGENRE=New Age
TTITLE0=Neryal Tree
TTITLE1=Mayelor
TTITLE2=Nimo
TTITLE3=Siprem
TTITLE4=Ellocine
TTITLE5=Greenamazonia
EXTD=YEAR: 1990
EXTT0=
EXTT1=
EXTT2=
EXTT3=
EXTT4=
EXTT5=
PLAYORDER=
